<?xml version="1.0" encoding="utf-8"?>
<!-- Generator: Adobe Illustrator 17.0.0, SVG Export Plug-In . SVG Version: 6.00 Build 0)  -->
<!DOCTYPE svg PUBLIC "-//W3C//DTD SVG 1.1//EN" "http://www.w3.org/Graphics/SVG/1.1/DTD/svg11.dtd">
<svg version="1.1" id="Capa_1" xmlns="http://www.w3.org/2000/svg" xmlns:xlink="http://www.w3.org/1999/xlink" x="0px" y="0px"
	 width="887px" height="307.699px" viewBox="0 0 887 307.699" enable-background="new 0 0 887 307.699" xml:space="preserve">
<g>
	<g>
		<g>
			<path fill-rule="evenodd" clip-rule="evenodd" fill="#FFFFFF" d="M244.657,163.104c0.757,0.339,1.348,0.842,1.683,1.6
				c0.335,0.755,0.335,1.516,0.081,2.271c-0.335,0.757-0.839,1.347-1.596,1.682c-0.758,0.336-1.516,0.336-2.273,0.084
				c-0.758-0.336-1.343-0.842-1.684-1.599c-0.335-0.755-0.335-1.516-0.08-2.27c0.335-0.755,0.839-1.349,1.596-1.684
				C243.142,162.853,243.899,162.853,244.657,163.104L244.657,163.104z M108.272,168.742c-0.758,0.252-1.516,0.252-2.274-0.084
				c-0.757-0.335-1.261-0.925-1.51-1.682c-0.341-0.756-0.341-1.516,0-2.271c0.336-0.757,0.926-1.261,1.678-1.6
				c0.763-0.252,1.515-0.252,2.273,0.084c0.759,0.335,1.267,0.929,1.603,1.684c0.249,0.754,0.249,1.515-0.087,2.27
				C109.62,167.9,109.03,168.405,108.272,168.742z"/>
			<path fill-rule="evenodd" clip-rule="evenodd" fill="#FFFFFF" d="M181.726,124.064l12.784,14.724l5.218-4.373l-18.002-20.278
				V124.064L181.726,124.064z M181.726,150.737v-6.479l3.28,3.702L181.726,150.737L181.726,150.737z M181.726,139.463v-10.094
				l10.597,11.946l-5.131,4.375L181.726,139.463z M171.036,111.867l10.69,12.197v-9.927l-5.894-6.646L171.036,111.867
				L171.036,111.867z M181.726,129.368v10.094l-18.095-20.614l4.796-4.373L181.726,129.368L181.726,129.368z M181.726,144.258v6.479
				l-1.938,1.599l-23.474-26.924l4.795-4.376L181.726,144.258z"/>
			<path fill-rule="evenodd" clip-rule="evenodd" fill="#FFFFFF" d="M176.508,172.946l12.784,14.726l5.218-4.377l-18.002-20.274
				V172.946L176.508,172.946z M176.508,199.537v-6.395l3.28,3.618L176.508,199.537L176.508,199.537z M176.508,188.346v-10.097
				l10.597,11.945l-5.131,4.377L176.508,188.346z M165.824,160.747l10.684,12.199v-9.925l-5.889-6.647L165.824,160.747
				L165.824,160.747z M176.508,178.249v10.097L158.5,167.732l4.795-4.376L176.508,178.249L176.508,178.249z M176.508,193.143v6.395
				l-1.938,1.597l-23.474-26.84l4.795-4.376L176.508,193.143z"/>
			<path fill-rule="evenodd" clip-rule="evenodd" fill="#FFFFFF" d="M217.729,149.305l-14.722,12.874v8.917l19.102-16.992
				L217.729,149.305L217.729,149.305z M203.007,157.467v-8.749l7.74-6.814l4.379,4.793L203.007,157.467L203.007,157.467z
				 M203.007,144.342l5.554-4.963l-4.373-4.796l-1.18,1.01V144.342z M203.007,162.179l-12.2,10.601l4.379,5.217l7.821-6.901V162.179
				L203.007,162.179z M203.007,135.593v8.749l-21.368,18.931l-4.373-5.216L203.007,135.593L203.007,135.593z M203.007,148.718v8.749
				l-14.722,13.126l-4.46-5.133L203.007,148.718z"/>
			<path fill-rule="evenodd" clip-rule="evenodd" fill="#FFFFFF" d="M168.93,144.761l-14.722,12.874v8.834l19.101-16.996
				L168.93,144.761L168.93,144.761z M154.208,152.923v-8.749l7.745-6.814l4.373,4.795L154.208,152.923L154.208,152.923z
				 M154.208,139.714l5.553-4.963l-4.373-4.795l-1.18,1.093V139.714z M154.208,157.635l-12.113,10.6l4.379,5.134l7.734-6.901
				V157.635L154.208,157.635z M154.208,131.049v8.665l-21.282,18.93l-4.373-5.131L154.208,131.049L154.208,131.049z
				 M154.208,144.174v8.749l-14.722,13.126l-4.373-5.215L154.208,144.174z"/>
			<path fill-rule="evenodd" clip-rule="evenodd" fill="#FFFFFF" d="M113.235,154.272c0-1.684-0.422-2.945-1.342-3.787
				c-0.844-0.845-2.273-1.348-4.292-1.348c-0.758,0-1.516,0-2.187,0c-0.677,0-1.267,0-1.851-0.084c-0.59,0-1.098,0-1.515,0
				c-0.422-0.083-0.758-0.083-1.012-0.083c0,0.168,0.087,0.252,0.087,0.422c0,0.168,0,0.249,0,0.419c0,0.168,0,0.251,0,0.419
				c0,0.171-0.087,0.339-0.087,0.507c0.844-0.084,1.596-0.084,2.441-0.168c0.757,0,1.603,0,2.355,0c0.844,0,1.602,0,2.359,0.083
				c0.753,0,1.429,0.168,1.933,0.336c0.589,0.252,1.093,0.507,1.428,0.925c0.342,0.422,0.504,0.925,0.504,1.599
				c0,0.591,0,1.094-0.162,1.513c-0.087,0.422-0.342,0.842-0.677,1.096c-0.336,0.336-0.839,0.504-1.51,0.671
				c-0.677,0.168-1.516,0.252-2.528,0.252c-1.012,0-2.018,0-2.944-0.084c-1.006,0-2.018-0.083-3.198-0.168
				c0,0.252,0.087,0.419,0.087,0.674c0,0.252,0,0.507,0,0.759c0,0.168,0,0.419,0,0.671c0,0.254-0.087,0.506-0.087,0.757
				c0.341-0.083,0.757-0.083,1.348-0.083c0.59,0,1.348,0,2.273,0c0.249,0,0.585,0,0.926,0c0.249,0,0.585,0,0.839,0
				c0.336,0,0.671,0,1.012,0c0.416,0,0.839,0,1.261,0c0.839,0,1.516-0.084,2.1-0.421c0.59-0.254,1.012-0.59,1.435-1.093
				c0.336-0.506,0.584-1.012,0.757-1.682C113.148,155.784,113.235,155.026,113.235,154.272z"/>
			<path fill-rule="evenodd" clip-rule="evenodd" fill="#FFFFFF" d="M104.906,144.09c0.844,0.084,1.77,0.252,2.696,0.504
				c0.925,0.167,1.851,0.338,2.609,0.506c0.839,0.167,1.515,0.251,2.019,0.419c0.584,0.084,0.919,0.171,1.006,0.255
				c0-0.339,0-0.59,0.086-0.842c0-0.087,0-0.254,0.081-0.338c0-0.168,0-0.336,0.087-0.42c-0.168,0-0.342-0.084-0.504-0.084
				c-0.254,0-0.509-0.083-0.844-0.083c-0.335,0-0.757-0.084-1.261-0.17c-0.422-0.081-1.007-0.167-1.683-0.252l-2.02-0.335
				c-0.335-0.084-0.671-0.084-1.012-0.168c-0.336-0.087-0.671-0.087-1.006-0.168c3.198-2.19,6.391-4.292,9.504-6.227
				c0-0.168,0-0.419,0.087-0.674c0-0.251,0.086-0.419,0.086-0.67l-2.024-0.336c-0.839-0.086-1.597-0.254-2.354-0.338
				c-0.671-0.168-1.429-0.252-2.187-0.423c-0.758-0.167-1.516-0.335-2.354-0.504c-0.839-0.167-1.771-0.335-2.777-0.59
				c0,0.339,0,0.674-0.087,0.842c0,0.168-0.081,0.422-0.168,0.758c0.087,0,0.341,0,0.676,0.084c0.336,0,0.758,0,1.174,0.084
				c0.504,0.086,1.012,0.167,1.515,0.254c0.504,0.082,1.094,0.169,1.684,0.252l3.113,0.503c-1.597,1.01-3.113,2.103-4.628,3.115
				c-1.597,1.009-3.112,2.019-4.709,3.028c0,0.336,0,0.587,0,0.755c-0.087,0.255-0.174,0.506-0.254,0.758
				c0.422,0.084,0.925,0.171,1.429,0.171C103.476,143.836,104.147,143.922,104.906,144.09z"/>
			<path fill-rule="evenodd" clip-rule="evenodd" fill="#FFFFFF" d="M109.03,129.62l2.274,0.672c0.925,0.251,1.764,0.59,2.441,0.758
				c0.752,0.254,1.429,0.503,2.1,0.758c0-0.169,0.087-0.423,0.168-0.59c0-0.252,0.086-0.503,0.167-0.758
				c0.087-0.252,0.168-0.503,0.255-0.755c0.081-0.255,0.168-0.423,0.248-0.59c-0.751-0.168-1.428-0.336-2.186-0.589
				c-0.671-0.168-1.51-0.419-2.441-0.671l-2.268-0.674c-0.926-0.339-1.684-0.59-2.441-0.842c-0.671-0.25-1.429-0.506-2.106-0.757
				c-0.081,0.251-0.081,0.419-0.162,0.673c0,0.252-0.087,0.507-0.173,0.758c-0.081,0.251-0.168,0.504-0.249,0.757
				c-0.087,0.168-0.168,0.42-0.254,0.587c0.758,0.168,1.429,0.339,2.186,0.507C107.347,129.113,108.104,129.368,109.03,129.62z"/>
			<path fill-rule="evenodd" clip-rule="evenodd" fill="#FFFFFF" d="M117.018,119.774c-0.752-0.084-1.597-0.084-2.354-0.167
				c-0.839-0.084-1.597-0.168-2.354-0.252c-0.839-0.084-1.597-0.168-2.354-0.255c-0.757-0.08-1.516-0.251-2.106-0.336
				c-0.167,0.255-0.248,0.507-0.335,0.759c-0.081,0.167-0.167,0.419-0.336,0.671c-0.086,0.255-0.168,0.423-0.335,0.674
				c-0.087,0.255-0.255,0.422-0.422,0.674c0.509,0,1.093,0.083,1.77,0.083c0.671,0.084,1.429,0.169,2.187,0.169
				c0.757,0.083,1.597,0.167,2.435,0.167c0.844,0.084,1.602,0.168,2.441,0.254c0.757,0,1.515,0.084,2.192,0.168
				c0.751,0.083,1.342,0.083,1.851,0.168c0.081-0.251,0.162-0.422,0.248-0.674c0.168-0.252,0.255-0.503,0.422-0.674
				c-0.758-0.754-1.515-1.597-2.354-2.439c-0.845-0.841-1.602-1.767-2.359-2.608c-0.759-0.842-1.51-1.68-2.188-2.441
				c-0.671-0.839-1.26-1.512-1.764-2.015c-0.087,0.252-0.168,0.503-0.254,0.674c-0.082,0.168-0.255,0.419-0.417,0.671
				c1.007,1.01,2.1,2.103,3.193,3.28C114.918,117.42,115.931,118.598,117.018,119.774z"/>
			<path fill-rule="evenodd" clip-rule="evenodd" fill="#FFFFFF" d="M117.528,110.774l1.851,1.428
				c0.758,0.589,1.429,1.094,2.019,1.599c0.59,0.504,1.18,0.925,1.683,1.429c0.081-0.084,0.168-0.168,0.168-0.335
				c0.081-0.085,0.254-0.252,0.422-0.42c0.168-0.255,0.335-0.506,0.59-0.841c0.249-0.339,0.59-0.843,1.007-1.348
				c0.503-0.674,0.925-1.178,1.18-1.512c0.249-0.423,0.504-0.674,0.758-0.929c-0.087,0-0.173-0.084-0.254-0.084
				c-0.087-0.083-0.255-0.168-0.423-0.252c-0.081-0.167-0.255-0.251-0.336-0.335c0-0.084-0.081-0.168-0.167-0.255
				c-0.422,0.59-0.758,1.18-1.094,1.768c-0.422,0.506-0.757,1.012-1.179,1.599c-0.591-0.419-1.174-0.842-1.765-1.261
				c-0.254-0.251-0.59-0.507-0.839-0.674c-0.342-0.251-0.59-0.506-0.925-0.673c0.838-1.094,1.596-2.103,2.522-3.109
				c-0.168-0.087-0.336-0.171-0.422-0.171c-0.081-0.084-0.168-0.084-0.168-0.168c-0.168-0.087-0.255-0.168-0.255-0.252
				c-0.081,0-0.248-0.171-0.336-0.254c-0.416,0.506-0.758,1.013-1.093,1.515c-0.336,0.504-0.758,1.094-1.174,1.68
				c-0.509-0.419-1.013-0.755-1.515-1.177c-0.509-0.336-1.013-0.756-1.516-1.174c0.081-0.087,0.249-0.255,0.416-0.507
				c0.174-0.254,0.423-0.506,0.677-0.758c0.254-0.335,0.503-0.589,0.757-0.925c0.249-0.252,0.503-0.59,0.758-0.842
				c-0.168,0-0.255-0.084-0.335-0.167c-0.087,0-0.255-0.083-0.342-0.254c-0.248-0.169-0.416-0.336-0.584-0.504
				c-0.087,0.251-0.341,0.587-0.757,1.177c-0.341,0.507-0.845,1.093-1.348,1.852c-0.336,0.422-0.671,0.757-0.926,1.177
				c-0.335,0.422-0.671,0.758-1.007,1.18c0.671,0.419,1.261,0.841,1.845,1.261C116.012,109.761,116.77,110.268,117.528,110.774z"/>
			<path fill-rule="evenodd" clip-rule="evenodd" fill="#FFFFFF" d="M127.118,97.732c0.59,0.59,0.845,1.177,0.845,1.764
				c-0.087,0.59-0.341,1.097-0.931,1.6c-0.081,0.087-0.081,0.087-0.168,0.168c0,0-0.081,0.086-0.168,0.086
				c-0.335-0.338-0.584-0.673-0.925-1.093v3.87l0,0c0.677,0.754,1.18,1.429,1.689,1.935c0.503,0.587,0.92,1.177,1.423,1.768
				c0.086-0.17,0.255-0.339,0.422-0.506c0.168-0.168,0.336-0.336,0.59-0.506c0.255-0.169,0.423-0.336,0.59-0.504
				c0.168-0.17,0.336-0.335,0.503-0.422c-0.503-0.504-1.012-1.01-1.516-1.596c-0.59-0.507-1.174-1.18-1.764-1.851l-0.504-0.506
				l0.168-0.168l5.969,2.018c0.174-0.168,0.336-0.336,0.51-0.59c0.254-0.168,0.416-0.336,0.59-0.504
				c0.25-0.167,0.417-0.335,0.584-0.503c0.168-0.17,0.423-0.338,0.59-0.505c-1.093-0.255-2.187-0.59-3.361-0.842
				c-1.099-0.335-2.192-0.674-3.286-1.01c0.503-0.758,0.758-1.512,0.758-2.187c0-0.757-0.336-1.428-0.926-2.02
				c-0.335-0.42-0.671-0.672-1.093-0.756c-0.422-0.168-0.845-0.251-1.261-0.168c-0.174,0-0.335,0.084-0.503,0.084
				c-0.087,0-0.173,0.084-0.173,0.084v1.851c0.087,0,0.255,0.084,0.422,0.168C126.447,97.058,126.783,97.31,127.118,97.732z
				 M125.771,100.257c-0.758-0.761-1.429-1.6-2.186-2.441c0.336-0.339,0.676-0.59,0.925-0.759c0.341-0.251,0.59-0.335,0.845-0.335
				c0.167,0,0.248,0,0.416,0v-1.851c-0.168,0.084-0.249,0.084-0.416,0.168c-0.174,0.168-0.423,0.251-0.677,0.506
				c-0.249,0.168-0.503,0.419-0.838,0.674c-0.423,0.419-0.845,0.755-1.094,1.09c-0.255,0.252-0.503,0.507-0.758,0.758
				c-0.254,0.167-0.423,0.336-0.59,0.507c-0.168,0.083-0.336,0.251-0.503,0.335c0.503,0.504,1.006,1.094,1.596,1.6
				c0.504,0.587,1.094,1.177,1.684,1.935l1.597,1.683V100.257z"/>
			<path fill-rule="evenodd" clip-rule="evenodd" fill="#FFFFFF" d="M137.212,89.821l0.254-0.168
				c-0.086-0.335-0.167-0.674-0.254-0.925c0-0.252-0.081-0.503-0.081-0.842c-0.422-0.084-0.925,0-1.429,0.084
				c-0.422,0.087-0.925,0.339-1.515,0.59c-0.423,0.252-0.845,0.588-1.18,1.01c-0.335,0.339-0.504,0.758-0.671,1.177
				c-0.167,0.507-0.254,0.926-0.167,1.516c0,0.503,0.167,1.01,0.503,1.515c0.335,0.588,0.67,1.01,1.18,1.178
				c0.416,0.252,0.839,0.419,1.342,0.503c0.422,0,0.925,0,1.434,0c0.503-0.084,0.92-0.084,1.429-0.084c0.422,0,0.839,0,1.174,0.17
				c0.341,0.082,0.676,0.336,0.845,0.754c0.254,0.423,0.335,0.842,0.254,1.262c-0.167,0.506-0.503,0.928-1.098,1.264
				c-0.335,0.169-0.585,0.252-0.921,0.336c-0.254,0.084-0.509,0.084-0.763,0c-0.336-0.084-0.503-0.167-0.751-0.252
				c-0.255-0.167-0.422-0.335-0.59-0.505l-0.255,0.17c0.087,0.335,0.255,0.671,0.336,1.009c0.087,0.336,0.174,0.759,0.342,1.177
				c0.249,0,0.671,0,1.174-0.167c0.509-0.168,1.013-0.336,1.515-0.674c0.671-0.336,1.175-0.758,1.516-1.177
				c0.422-0.419,0.671-0.925,0.925-1.432c0.168-0.419,0.255-1.01,0.168-1.516c-0.088-0.503-0.25-1.006-0.504-1.512
				c-0.341-0.59-0.757-1.01-1.18-1.177c-0.416-0.252-0.926-0.419-1.347-0.506c-0.504-0.081-1.007-0.081-1.516,0
				c-0.504,0.087-0.92,0.087-1.429,0.087c-0.421,0-0.838,0-1.174-0.169c-0.422-0.086-0.671-0.338-0.845-0.674
				c-0.254-0.422-0.254-0.76-0.168-1.263c0.168-0.42,0.423-0.758,0.926-1.01C135.53,89.066,136.461,89.148,137.212,89.821z"/>
			<path fill-rule="evenodd" clip-rule="evenodd" fill="#FFFFFF" d="M143.108,89.741l0.925,2.184
				c0.336,0.928,0.671,1.686,0.926,2.441c0.249,0.674,0.503,1.347,0.752,2.021c0.174-0.087,0.336-0.167,0.59-0.254
				c0.174-0.085,0.422-0.169,0.677-0.252c0.248-0.168,0.503-0.254,0.758-0.336c0.162-0.087,0.416-0.17,0.59-0.17
				c-0.341-0.672-0.59-1.345-0.932-2.019c-0.248-0.671-0.589-1.513-1.006-2.357l-0.845-2.186c-0.417-0.926-0.671-1.681-0.92-2.439
				c-0.254-0.674-0.508-1.432-0.763-2.103c-0.168,0.081-0.335,0.167-0.584,0.335c-0.167,0.084-0.422,0.168-0.677,0.252
				c-0.335,0.167-0.584,0.251-0.758,0.339c-0.248,0-0.416,0.081-0.671,0.167c0.336,0.674,0.671,1.345,1.013,2.016
				C142.43,88.058,142.772,88.813,143.108,89.741z"/>
			<path fill-rule="evenodd" clip-rule="evenodd" fill="#FFFFFF" d="M155.139,82.336c0.504,0.084,1.006,0.336,1.429,0.587
				c0.417,0.338,0.758,0.758,1.093,1.261c0.249,0.507,0.504,1.094,0.671,1.768c0.422,1.767,0.335,3.196-0.168,4.208
				c-0.59,1.094-1.429,1.765-2.777,2.019c-0.087,0-0.168,0.083-0.249,0.083v0.926c0.416-0.084,0.92-0.168,1.429-0.336
				c0.839-0.167,1.51-0.507,2.187-0.928c0.671-0.42,1.174-1.01,1.596-1.597c0.423-0.674,0.671-1.432,0.845-2.27
				c0.081-0.845,0.081-1.684-0.174-2.694c-0.249-1.012-0.585-1.851-1.094-2.525c-0.416-0.59-1.006-1.093-1.677-1.345
				c-0.677-0.339-1.435-0.422-2.274-0.422c-0.254,0-0.59,0-0.839,0V82.336z M153.115,89.148l-1.093-4.877
				c-0.082-0.336-0.168-0.59-0.255-0.841c0-0.339-0.081-0.507-0.081-0.591c0.254-0.084,0.509-0.168,0.758-0.168
				c0.255-0.084,0.59-0.168,1.007-0.336c0.596-0.087,1.099-0.087,1.689,0l0,0v-1.264c-0.59,0.083-1.266,0.168-1.851,0.335
				c-0.758,0.169-1.348,0.339-1.857,0.423c-0.416,0.167-0.839,0.251-1.26,0.338c-0.249,0.081-0.504,0.168-0.759,0.168
				c-0.249,0.084-0.416,0.084-0.584,0.084c0.168,0.754,0.417,1.428,0.584,2.186c0.174,0.757,0.423,1.512,0.59,2.525l0.503,2.271
				c0.254,0.925,0.423,1.767,0.59,2.522c0.168,0.674,0.254,1.432,0.422,2.105c0.168,0,0.335-0.083,0.59-0.167
				c0.249,0,0.504-0.085,0.759-0.171c0.422-0.081,0.925-0.168,1.596-0.335c0.167,0,0.422-0.084,0.676-0.168v-0.926
				c-0.254,0.084-0.428,0.084-0.59,0.084c-0.255,0.084-0.422,0.084-0.677,0.17c0-0.086,0-0.254-0.081-0.592
				c-0.087-0.252-0.168-0.504-0.254-0.842L153.115,89.148z"/>
			<path fill-rule="evenodd" clip-rule="evenodd" fill="#FFFFFF" d="M167.669,86.541l1.515-0.083
				c-0.254-0.674-0.584-1.348-0.925-2.019c-0.169-0.422-0.417-0.925-0.59-1.348v-3.954l0,0c0.173,0,0.255,0,0.341-0.084
				c0.08,0,0.249,0,0.335-0.083c0.423,0.925,0.926,2.019,1.429,3.028c0.503,1.094,1.093,2.187,1.602,3.2
				c0.504,1.092,1.007,2.016,1.511,3.028c0.509,0.923,0.925,1.683,1.347,2.354c-0.336,0-0.59,0-0.839,0
				c-0.255,0-0.509,0.084-0.764,0.084c-0.162,0-0.416,0-0.671,0.083c-0.249,0-0.504,0-0.758,0.087
				c-0.248-0.59-0.503-1.093-0.752-1.686c-0.255-0.588-0.51-1.178-0.758-1.768c-0.335,0.087-0.763,0.087-1.093,0.087
				c-0.341,0.084-0.676,0.084-0.931,0.084V86.541z M167.334,82.42c-0.249,0.754-0.504,1.428-0.671,2.186
				c-0.255,0.671-0.423,1.345-0.591,2.102l1.597-0.168v1.01c-0.081,0-0.162,0-0.162,0c-0.342,0.084-0.59,0.084-0.931,0.084
				c-0.249,0.084-0.584,0.084-0.92,0.168c-0.167,0.59-0.341,1.177-0.422,1.767c-0.168,0.59-0.335,1.177-0.423,1.767
				c-0.167,0-0.248,0-0.422,0c-0.081,0.084-0.249,0.084-0.416,0.084c-0.087,0-0.255,0-0.422,0c-0.087,0-0.255,0.084-0.423,0.084
				c0.087-0.335,0.255-0.758,0.423-1.261c0.254-0.59,0.422-1.177,0.671-1.851c0.168-0.758,0.422-1.515,0.677-2.274
				c0.248-0.755,0.503-1.597,0.757-2.438c0.249-0.758,0.503-1.6,0.671-2.354c0.249-0.845,0.504-1.515,0.672-2.19
				c0.167,0,0.254,0,0.336,0c0.087,0,0.173,0,0.335,0v3.954C167.507,82.839,167.42,82.672,167.334,82.42z"/>
			<path fill-rule="evenodd" clip-rule="evenodd" fill="#FFFFFF" d="M181.893,80.062c0.336,0.084,0.671,0.252,1.007,0.419
				c0.503,0.171,0.844,0.507,1.18,0.926c0.335,0.423,0.59,0.929,0.671,1.516c0.168,0.59,0.254,1.261,0.168,1.935
				c-0.081,1.85-0.59,3.199-1.429,3.954c-0.423,0.506-1.013,0.841-1.597,1.009v1.177c0.584,0,1.174-0.084,1.683-0.335
				c0.752-0.168,1.429-0.588,2.019-1.094c0.585-0.503,1.094-1.094,1.428-1.851c0.336-0.758,0.59-1.681,0.672-2.609
				c0.087-1.093,0-2.019-0.336-2.773c-0.255-0.76-0.671-1.348-1.18-1.767c-0.585-0.507-1.261-0.842-2.1-1.096
				c-0.677-0.168-1.348-0.336-2.187-0.42V80.062z M179.03,86.458l0.336-5.05c0-0.335,0.087-0.671,0.087-0.926
				c0-0.251,0-0.419,0.081-0.503c0.254,0,0.509,0,0.758,0c0.255,0,0.59,0,1.013,0c0.167,0,0.422,0.083,0.59,0.083v-1.009
				c-0.168,0-0.342,0-0.509,0c-0.757-0.083-1.342-0.083-1.851-0.083c-0.503-0.084-0.925-0.084-1.261-0.084
				c-0.336,0-0.591-0.087-0.758-0.087c-0.249,0-0.503-0.081-0.671-0.081c0,0.755,0,1.513-0.081,2.27
				c0,0.674-0.087,1.599-0.087,2.525l-0.168,2.355c-0.087,0.926-0.168,1.851-0.255,2.525c-0.081,0.755-0.167,1.516-0.248,2.187
				c0.168,0,0.417,0,0.671,0c0.249,0.084,0.503,0.084,0.758,0.084c0.416,0,1.007,0.083,1.597,0.17c0.59,0,1.348,0.081,2.187,0.165
				c0.254,0,0.422,0,0.677,0v-1.177c-0.509,0.168-1.012,0.168-1.602,0.168c-0.335-0.081-0.584-0.081-0.839-0.081
				c-0.255-0.087-0.509-0.087-0.677-0.087c0-0.081,0-0.252,0.087-0.587c0-0.255,0-0.507,0-0.842L179.03,86.458z"/>
			<path fill-rule="evenodd" clip-rule="evenodd" fill="#FFFFFF" d="M200.653,85.448c-0.423,0.503-0.758,1.009-1.18,1.512v-2.018
				c0.254-0.336,0.509-0.59,0.677-0.926c0.59-0.586,1.006-1.261,1.429-1.767c0.081,0,0.254,0.087,0.335,0.171
				c0.087,0,0.168,0,0.255,0.083c0.167,0,0.249,0.084,0.335,0.084c0.168,0,0.255,0,0.336,0c0.087,1.009,0.167,2.187,0.254,3.364
				c0.168,1.18,0.255,2.357,0.335,3.534c0.168,1.178,0.249,2.271,0.336,3.28c0.167,1.097,0.254,2.022,0.422,2.693
				c-0.255-0.084-0.509-0.168-0.758-0.252c-0.254-0.084-0.422-0.084-0.67-0.168c-0.255-0.084-0.509-0.168-0.759-0.252
				c-0.255,0-0.422-0.084-0.676-0.167c-0.081-0.591-0.081-1.18-0.081-1.768c0-0.674-0.087-1.264-0.087-1.938
				c-0.416-0.081-0.757-0.168-1.093-0.251c-0.168-0.084-0.423-0.168-0.59-0.252v-1.009l1.515,0.419c0-0.755-0.081-1.429-0.168-2.187
				C200.82,86.961,200.74,86.206,200.653,85.448z M199.473,86.961c-0.081,0.085-0.081,0.171-0.168,0.252
				c-0.503,0.59-0.926,1.18-1.348,1.767l1.516,0.423v1.009c-0.168,0-0.336-0.084-0.503-0.084c-0.255-0.084-0.591-0.168-0.839-0.252
				c-0.335-0.087-0.589-0.168-0.926-0.254c-0.341,0.506-0.757,1.012-1.093,1.516c-0.341,0.506-0.677,1.009-1.012,1.516
				c-0.087,0-0.255-0.087-0.336-0.087c-0.168-0.08-0.255-0.08-0.422-0.168c-0.081,0-0.249-0.081-0.416-0.081
				c-0.087,0-0.255-0.086-0.422-0.086c0.248-0.251,0.503-0.587,0.925-1.093c0.336-0.422,0.758-0.926,1.174-1.516
				c0.509-0.587,0.926-1.177,1.435-1.764c0.584-0.678,1.093-1.349,1.597-2.019c0.336-0.338,0.59-0.76,0.839-1.096V86.961z"/>
			<path fill-rule="evenodd" clip-rule="evenodd" fill="#FFFFFF" d="M210.666,89.235c-0.422,0.754-0.844,1.512-1.348,2.354
				c-0.503,0.842-1.006,1.516-1.428,2.274c-0.509,0.674-0.845,1.26-1.18,1.683c-0.248,0.503-0.503,0.754-0.59,0.842
				c0.255,0.081,0.509,0.252,0.758,0.336c0.087,0.084,0.255,0.168,0.335,0.252c0.087,0.083,0.255,0.168,0.342,0.251
				c0.081-0.168,0.168-0.336,0.255-0.503c0.081-0.168,0.162-0.423,0.336-0.758c0.168-0.251,0.416-0.59,0.584-1.009
				c0.255-0.419,0.59-1.009,0.925-1.599l1.012-1.768c0.168-0.251,0.336-0.59,0.504-0.842c0.168-0.251,0.341-0.587,0.504-0.838
				c0.925,3.783,1.77,7.485,2.441,11.02c0.167,0.083,0.336,0.254,0.59,0.336c0.168,0.086,0.422,0.254,0.59,0.422l1.006-1.852
				c0.422-0.674,0.845-1.345,1.18-2.018c0.416-0.674,0.757-1.262,1.18-1.935c0.416-0.59,0.838-1.261,1.261-2.018
				c0.503-0.758,1.006-1.517,1.597-2.442c-0.336-0.084-0.59-0.167-0.759-0.251c-0.167-0.17-0.336-0.255-0.589-0.506
				c-0.081,0.083-0.168,0.335-0.336,0.59c-0.167,0.335-0.335,0.671-0.59,1.093c-0.167,0.419-0.416,0.842-0.671,1.345
				c-0.336,0.422-0.59,0.929-0.845,1.432l-1.597,2.776c-0.416-1.851-0.838-3.702-1.26-5.469c-0.336-1.851-0.758-3.618-1.181-5.47
				c-0.248-0.083-0.503-0.252-0.671-0.335c-0.168-0.084-0.422-0.252-0.671-0.419c-0.173,0.335-0.422,0.754-0.676,1.261
				C211.424,87.97,211.089,88.56,210.666,89.235z"/>
			<path fill-rule="evenodd" clip-rule="evenodd" fill="#FFFFFF" d="M229.762,97.478l0.087,0.17
				c0.925,0.252,1.516,0.336,2.019,0.504c0.503,0.083,0.925,0.171,1.18,0.171c0.248,0,0.416,0,0.59,0
				c0.081-0.088,0.162-0.088,0.248-0.171c0.169-0.168,0.169-0.335,0.255-0.59c0-0.168-0.087-0.336-0.255-0.587
				c-0.087-0.084-0.248-0.168-0.336-0.168c-0.086-0.084-0.335-0.084-0.671-0.084c-0.255,0-0.677,0-1.267,0
				c-0.504,0.084-1.093,0.084-1.851,0.168V97.478L229.762,97.478z M229.762,100.087V98.49l0,0c0.087,0.084,0.173,0.168,0.255,0.252
				c0.081,0.083,0.167,0.083,0.254,0.167C230.097,99.329,229.935,99.667,229.762,100.087z M229.177,96.975l0.585,0.503V96.89
				C229.593,96.975,229.426,96.975,229.177,96.975L229.177,96.975z M229.762,98.49v1.597c-0.249,0.59-0.585,1.263-0.839,1.934
				c-0.509,1.094-1.012,2.187-1.515,3.2c-0.416,1.092-0.838,2.103-1.261,3.112c-0.416,0.926-0.671,1.767-0.925,2.525
				c-0.087-0.083-0.168-0.252-0.249-0.339v-6.392l0.162,0.252c0.342-0.674,0.677-1.348,0.926-2.019
				c0.335-0.674,0.59-1.348,0.931-2.018c-0.677,0.251-1.348,0.587-2.019,0.841v-1.348c0.759-0.338,1.51-0.589,2.268-0.925
				c0.757-0.335,1.429-0.674,2.105-0.925c0.081,0.084,0.168,0.168,0.168,0.251C229.593,98.322,229.68,98.404,229.762,98.49z
				 M224.972,99.835v1.348h-0.086c-0.677,0.335-1.348,0.587-2.019,0.923l2.106,2.021v6.392c-0.086-0.083-0.255-0.168-0.341-0.251
				c-0.167-0.168-0.336-0.336-0.503-0.507c-0.168-0.168-0.336-0.419-0.503-0.587c-0.168-0.168-0.342-0.336-0.59-0.504
				c0.336-0.506,0.59-1.011,0.839-1.599c0.335-0.59,0.59-1.093,0.844-1.684c-0.254-0.251-0.509-0.59-0.757-0.841
				c-0.255-0.251-0.504-0.506-0.839-0.758c-0.174-0.252-0.422-0.419-0.591-0.673c-0.254-0.169-0.421-0.421-0.676-0.588
				c-0.59,0.252-1.174,0.503-1.683,0.758c-0.59,0.335-1.093,0.586-1.597,0.922c-0.087-0.167-0.249-0.248-0.336-0.336
				c-0.086-0.083-0.167-0.167-0.254-0.335c-0.087-0.084-0.168-0.167-0.336-0.251c-0.081-0.087-0.168-0.17-0.336-0.339
				c0.336-0.084,0.758-0.252,1.348-0.419c0.503-0.252,1.093-0.507,1.764-0.757c0.671-0.339,1.429-0.587,2.187-0.926
				C223.369,100.509,224.128,100.171,224.972,99.835L224.972,99.835z"/>
			<path fill-rule="evenodd" clip-rule="evenodd" fill="#FFFFFF" d="M235.569,116.495l-0.845,0.503
				c-0.839,0.506-1.596,0.925-2.181,1.348c-0.677,0.336-1.348,0.675-1.938,1.01c0.087,0.168,0.248,0.335,0.336,0.503
				c0.087,0.252,0.255,0.423,0.422,0.674c0.168,0.252,0.249,0.503,0.416,0.671c0.087,0.254,0.168,0.422,0.254,0.591
				c0.59-0.421,1.18-0.839,1.851-1.262c0.591-0.339,1.348-0.842,2.187-1.345l2.019-1.18c0.845-0.503,1.515-0.925,2.186-1.26
				c0.677-0.423,1.348-0.758,2.019-1.094c-0.167-0.168-0.248-0.339-0.417-0.506c-0.087-0.251-0.254-0.419-0.422-0.671
				c-0.168-0.255-0.249-0.506-0.336-0.674c-0.168-0.254-0.255-0.422-0.335-0.59c-0.591,0.423-1.18,0.842-1.851,1.264
				c-0.59,0.335-1.349,0.839-2.187,1.261c-0.174-0.251-0.342-0.59-0.59-0.926c-0.168-0.335-0.422-0.757-0.758-1.263
				c-0.341-0.503-0.59-1.007-0.844-1.345c-0.167-0.423-0.336-0.674-0.503-0.926c0.844-0.502,1.596-0.925,2.192-1.344
				c0.671-0.339,1.341-0.674,2.013-1.013c-0.168-0.165-0.249-0.336-0.417-0.503c-0.168-0.252-0.255-0.419-0.422-0.674
				c-0.168-0.252-0.254-0.504-0.423-0.672c-0.081-0.254-0.167-0.423-0.248-0.59c-0.59,0.422-1.261,0.842-1.851,1.262
				c-0.677,0.338-1.348,0.841-2.193,1.348l-2.013,1.177c-0.844,0.507-1.602,0.926-2.279,1.261c-0.584,0.422-1.261,0.757-1.845,1.096
				c0.081,0.167,0.168,0.335,0.335,0.503c0.087,0.252,0.249,0.419,0.423,0.674c0.081,0.252,0.249,0.504,0.335,0.674
				c0.168,0.168,0.249,0.42,0.335,0.587c0.59-0.419,1.18-0.842,1.852-1.261c0.59-0.339,1.348-0.842,2.186-1.348l0.845-0.503
				c0.249,0.422,0.503,0.758,0.671,1.093c0.249,0.419,0.504,0.758,0.759,1.177c0.168,0.336,0.416,0.759,0.59,1.094
				C235.147,115.737,235.401,116.156,235.569,116.495z"/>
			<path fill-rule="evenodd" clip-rule="evenodd" fill="#FFFFFF" d="M234.724,130.207c0.509,1.6,1.267,2.693,2.36,3.283
				c1.093,0.587,2.609,0.503,4.542-0.084c0.671-0.171,1.435-0.421,2.018-0.59c0.671-0.17,1.266-0.338,1.851-0.419
				c0.509-0.171,1.012-0.338,1.429-0.422c0.422-0.084,0.757-0.168,1.012-0.251c-0.081-0.085-0.168-0.252-0.254-0.339
				c0-0.167-0.081-0.335-0.081-0.419c-0.087-0.167-0.087-0.252-0.087-0.423c-0.081-0.167-0.081-0.335-0.081-0.503
				c-0.758,0.335-1.515,0.59-2.273,0.841c-0.758,0.252-1.516,0.503-2.273,0.757c-0.757,0.169-1.516,0.42-2.274,0.588
				c-0.752,0.171-1.423,0.252-2.013,0.171c-0.59,0-1.18-0.171-1.603-0.422c-0.422-0.251-0.752-0.758-0.926-1.432
				c-0.167-0.503-0.248-1.006-0.336-1.429c0-0.419,0.168-0.841,0.336-1.26c0.336-0.423,0.677-0.759,1.267-1.094
				c0.585-0.339,1.423-0.674,2.435-0.929c0.926-0.336,1.852-0.587,2.777-0.839c0.925-0.254,1.937-0.506,3.112-0.757
				c-0.081-0.171-0.249-0.423-0.336-0.59c-0.081-0.251-0.168-0.503-0.168-0.754c-0.087-0.17-0.168-0.423-0.249-0.674
				c0-0.254-0.086-0.421-0.086-0.674c-0.336,0.083-0.671,0.252-1.261,0.419c-0.503,0.168-1.267,0.422-2.193,0.674
				c-0.249,0.085-0.584,0.168-0.839,0.255c-0.255,0.083-0.59,0.167-0.839,0.251c-0.335,0.084-0.676,0.252-1.012,0.336
				c-0.335,0.084-0.757,0.168-1.174,0.336c-0.757,0.252-1.435,0.59-1.937,1.013c-0.422,0.419-0.758,0.922-1.013,1.512
				c-0.167,0.504-0.248,1.094-0.248,1.768C234.39,128.778,234.476,129.449,234.724,130.207z"/>
			<path fill-rule="evenodd" clip-rule="evenodd" fill="#FFFFFF" d="M246.086,141.145c-0.671-0.167-1.429-0.422-2.106-0.59v-1.261
				c0.255,0.084,0.509,0.168,0.845,0.252c0.758,0.251,1.596,0.422,2.354,0.673c0.845,0.168,1.597,0.336,2.274,0.503
				c0,0.168,0,0.255,0,0.339c0,0.167,0,0.252,0,0.335c0,0.168,0,0.255,0,0.336c0.081,0.087,0.081,0.254,0.168,0.338
				c-0.926,0.503-1.938,1.01-3.032,1.597c-0.838,0.421-1.764,0.925-2.609,1.347v-2.692c0-0.084,0.087-0.084,0.174-0.084
				C244.825,141.904,245.414,141.565,246.086,141.145z M243.98,140.556L243.98,140.556c-0.757-0.168-1.428-0.336-2.186-0.503
				l0.422,3.197c0.59-0.336,1.18-0.674,1.764-0.926v2.692c-0.167,0.168-0.335,0.252-0.503,0.336c-1.012,0.506-2.018,1.094-2.944,1.6
				c-0.925,0.503-1.683,1.009-2.273,1.429c0-0.337-0.082-0.588-0.082-0.843c0-0.251-0.086-0.503-0.086-0.754
				c0-0.168-0.081-0.422-0.081-0.673c0-0.252-0.087-0.507-0.168-0.759c0.585-0.251,1.094-0.506,1.684-0.757
				c0.584-0.252,1.174-0.588,1.683-0.839c0-0.423-0.087-0.761-0.087-1.096c-0.087-0.419-0.087-0.755-0.168-1.177
				c0-0.252-0.087-0.59-0.087-0.842c-0.08-0.337-0.08-0.588-0.167-0.927c-0.59-0.167-1.174-0.251-1.851-0.419
				c-0.59-0.083-1.175-0.252-1.765-0.338c0-0.083,0-0.252,0-0.419c0-0.084,0-0.252-0.087-0.339c0-0.168,0-0.336,0-0.419
				c0-0.168-0.081-0.336-0.081-0.504c0.249,0.168,0.758,0.252,1.261,0.419c0.585,0.168,1.18,0.336,1.932,0.59
				c0.677,0.168,1.435,0.336,2.187,0.588c0.59,0.17,1.099,0.338,1.683,0.422V140.556z"/>
			<path fill-rule="evenodd" clip-rule="evenodd" fill="#FFFFFF" d="M240.197,159.571l0.081-0.253
				c-0.168-0.168-0.335-0.422-0.504-0.674c-0.167-0.251-0.335-0.503-0.416-0.758c-0.087-0.251-0.168-0.587-0.255-0.842
				c-0.087-0.335-0.087-0.587-0.087-0.839c0-0.506,0.087-1.012,0.255-1.515c0.168-0.503,0.503-0.925,0.839-1.348
				c0.422-0.336,0.926-0.671,1.603-0.922c0.584-0.253,1.347-0.336,2.267-0.336c0.931,0,1.684,0.083,2.361,0.336
				c0.671,0.251,1.261,0.503,1.683,0.922c0.416,0.422,0.752,0.845,0.92,1.264c0.254,0.503,0.335,0.926,0.335,1.432
				c0,0.587-0.081,1.173-0.335,1.596c-0.249,0.506-0.671,0.925-1.174,1.345v0.254c0.255,0.083,0.59,0.083,0.839,0.168
				c0.336,0.085,0.59,0.169,0.926,0.251c0.087-0.167,0.174-0.419,0.341-0.757c0.081-0.252,0.168-0.503,0.249-0.839
				c0.087-0.338,0.168-0.673,0.168-1.012c0.086-0.335,0.086-0.67,0.086-0.923c0-0.928-0.167-1.767-0.335-2.609
				c-0.255-0.841-0.677-1.599-1.18-2.273c-0.59-0.587-1.261-1.094-2.1-1.512c-0.845-0.336-1.852-0.506-3.032-0.506
				c-0.844,0-1.601,0.17-2.273,0.419c-0.758,0.255-1.348,0.674-1.851,1.263c-0.504,0.507-0.926,1.181-1.261,2.019
				c-0.254,0.758-0.335,1.684-0.335,2.693c0,1.429,0.167,2.609,0.671,3.534c0.255,0.084,0.509,0.084,0.758,0.168
				C239.693,159.402,239.942,159.487,240.197,159.571z"/>
			<path fill-rule="evenodd" clip-rule="evenodd" fill="#FFFFFF" d="M104.656,178.672c0.081,0.168,0.081,0.251,0.168,0.503
				c0.081,0.084,0.081,0.252,0.081,0.419c1.938,0.171,3.789,0.339,5.727,0.506c1.845,0.168,3.783,0.422,5.715,0.674
				c-0.081-0.171-0.168-0.335-0.168-0.506c-0.081-0.168-0.081-0.336-0.081-0.503c-0.341,0-0.757-0.087-1.261-0.087
				c-0.503,0-1.012-0.084-1.602-0.084s-1.18-0.084-1.851-0.084c-0.59-0.084-1.174-0.084-1.765-0.168
				c-0.59-0.084-1.18-0.084-1.771-0.168c-0.584,0-1.093-0.084-1.509-0.168c0.671-0.503,1.342-1.009,2.1-1.432
				c0.671-0.503,1.348-1.006,2.02-1.512c0.676-0.423,1.348-0.926,2.018-1.345c0.671-0.423,1.348-0.844,1.938-1.18
				c0-0.167-0.081-0.251-0.168-0.419c0-0.086-0.087-0.171-0.087-0.338c0-0.084-0.081-0.168-0.081-0.336c0-0.083,0-0.251,0-0.338
				c-0.844,0.507-1.603,1.096-2.528,1.768c-0.839,0.59-1.678,1.176-2.522,1.766c-0.839,0.59-1.683,1.181-2.441,1.684
				C105.831,177.829,105.241,178.333,104.656,178.672z"/>
			<path fill-rule="evenodd" clip-rule="evenodd" fill="#FFFFFF" d="M113.403,183.97l-2.435,1.009
				c-0.677,0.254-1.261,0.507-1.938,0.759c-0.59,0.167-1.261,0.419-1.851,0.674c0.087,0.168,0.168,0.335,0.255,0.587
				c0.168,0.255,0.168,0.505,0.249,0.674c0.59-0.252,1.18-0.504,1.851-0.842c0.59-0.252,1.18-0.506,1.851-0.758l2.527-1.009
				c0.584-0.252,1.261-0.504,1.846-0.758c0.59-0.168,1.261-0.419,1.938-0.671c-0.081-0.086-0.168-0.171-0.168-0.339
				c-0.081-0.084-0.168-0.168-0.168-0.251c-0.087-0.084-0.087-0.252-0.168-0.336c0-0.084,0-0.254,0-0.336
				c-0.677,0.252-1.261,0.503-1.937,0.838C114.664,183.464,114.08,183.716,113.403,183.97z"/>
			<path fill-rule="evenodd" clip-rule="evenodd" fill="#FFFFFF" d="M112.986,198.695l0.081,0.168c0.081,0,0.255-0.083,0.423-0.254
				c0.254-0.084,0.503-0.251,0.757-0.42c0.335-0.168,0.671-0.336,1.007-0.503c0.341-0.251,0.677-0.423,1.012-0.59
				c0.335-0.252,0.671-0.422,0.925-0.59c0.336-0.167,0.59-0.336,0.839-0.419c0.254-0.17,0.677-0.335,1.093-0.589
				c0.422-0.253,0.925-0.42,1.348-0.674c0.503-0.252,0.925-0.419,1.348-0.671c0.422-0.168,0.758-0.339,0.926-0.422
				c-0.168-0.168-0.255-0.252-0.255-0.336c-0.081-0.167-0.167-0.335-0.167-0.503c-0.839,0.503-1.684,1.007-2.609,1.513
				c-0.839,0.504-1.764,1.01-2.777,1.6l-1.851,1.01c0.255-0.587,0.509-1.348,0.758-2.19c0.335-0.839,0.671-1.764,1.013-2.693
				c0.416-0.924,0.757-1.849,1.093-2.861c0.416-0.923,0.757-1.849,1.093-2.69l-0.087-0.168c-0.336,0.168-0.839,0.419-1.429,0.842
				c-0.59,0.335-1.348,0.754-2.273,1.26c-0.249,0.167-0.591,0.338-1.007,0.506c-0.422,0.249-0.757,0.42-1.18,0.671
				c-0.422,0.168-0.838,0.422-1.26,0.59c-0.422,0.168-0.757,0.419-1.174,0.587c-0.342,0.172-0.59,0.255-0.925,0.423
				c-0.254,0.084-0.422,0.168-0.509,0.168c0.087,0.168,0.167,0.336,0.254,0.503c0.168,0.168,0.168,0.255,0.254,0.423
				c0.081,0,0.167-0.088,0.417-0.255c0.167-0.081,0.422-0.249,0.671-0.419c0.255-0.168,0.59-0.337,0.931-0.505
				c0.249-0.167,0.584-0.339,0.92-0.59c0.254-0.168,0.59-0.336,0.845-0.503c0.335-0.171,0.503-0.254,0.757-0.339
				c0.671-0.419,1.261-0.754,1.765-1.009c0.422-0.171,0.757-0.419,1.006-0.503c-0.671,1.764-1.342,3.531-2.013,5.3
				C114.334,195.413,113.657,197.097,112.986,198.695z"/>
			<path fill-rule="evenodd" clip-rule="evenodd" fill="#FFFFFF" d="M121.733,208.37l0.757-0.505v-0.084
				c-0.167,0-0.335,0-0.59-0.084c-0.248,0-0.503-0.084-0.752-0.168c-0.255-0.168-0.51-0.251-0.758-0.42
				c-0.255-0.167-0.503-0.338-0.758-0.59c-0.336-0.421-0.59-0.925-0.758-1.428c-0.168-0.506-0.255-1.013-0.168-1.516
				c0.081-0.503,0.335-1.093,0.671-1.683c0.336-0.504,0.845-1.094,1.516-1.683c0.59-0.588,1.261-1.01,1.851-1.262
				c0.585-0.252,1.175-0.422,1.764-0.422c0.503,0,1.012,0.17,1.516,0.338c0.422,0.249,0.839,0.59,1.261,1.011
				c0.173,0.251,0.335,0.503,0.422,0.841c0.168,0.251,0.255,0.503,0.255,0.841c0.081,0.251,0.081,0.504,0.081,0.671
				c0,0.255-0.081,0.423-0.081,0.588l0.081,0.087c0.168-0.087,0.336-0.252,0.59-0.336c0.168-0.17,0.335-0.254,0.504-0.254
				c-0.081-0.419-0.255-0.923-0.504-1.345c-0.255-0.506-0.503-1.009-0.926-1.429c-0.504-0.59-1.093-1.096-1.765-1.432
				c-0.589-0.335-1.267-0.503-1.938-0.503c-0.59-0.084-1.348,0-2.019,0.336c-0.677,0.251-1.348,0.671-2.019,1.261
				c-0.671,0.506-1.18,1.177-1.603,1.851c-0.335,0.591-0.503,1.261-0.584,1.935c-0.087,0.674,0.081,1.348,0.248,1.935
				c0.254,0.674,0.677,1.261,1.093,1.767c0.254,0.336,0.509,0.503,0.764,0.758c0.248,0.168,0.503,0.336,0.751,0.503
				c0.255,0.171,0.422,0.254,0.591,0.338C121.484,208.37,121.652,208.37,121.733,208.37z"/>
			<path fill-rule="evenodd" clip-rule="evenodd" fill="#FFFFFF" d="M128.634,206.519l-1.77,2.02
				c-0.417,0.503-0.92,1.012-1.342,1.516c-0.422,0.503-0.845,1.006-1.348,1.513c0.336,0.254,0.677,0.505,1.007,0.757
				c0.341,0.336,0.677,0.59,1.012,0.841c0.336,0.336,0.671,0.591,1.012,0.842c0.336,0.251,0.591,0.587,0.926,0.842
				c0.081-0.086,0.081-0.17,0.248-0.337c0,0,0.087-0.084,0.174-0.169c0-0.085,0.081-0.085,0.162-0.167
				c-0.248-0.084-0.416-0.252-0.671-0.419c-0.248-0.171-0.584-0.339-0.839-0.591c-0.254-0.167-0.509-0.422-0.844-0.674
				c-0.249-0.167-0.504-0.419-0.758-0.586c0.168-0.17,0.341-0.423,0.59-0.758c0.255-0.255,0.504-0.674,0.926-1.093l1.013-1.178
				c0.081-0.171,0.167-0.254,0.248-0.338c0.087-0.084,0.174-0.169,0.255-0.252c0.081,0.168,0.249,0.252,0.504,0.503
				c0.167,0.168,0.422,0.336,0.677,0.59c0.249,0.252,0.504,0.42,0.752,0.675c0.174,0.167,0.423,0.419,0.59,0.589
				c0.087-0.171,0.168-0.255,0.254-0.422c0.081-0.084,0.255-0.167,0.336-0.336c-0.168-0.086-0.336-0.254-0.503-0.335
				c-0.255-0.171-0.422-0.338-0.677-0.424c-0.162-0.168-0.416-0.421-0.671-0.588c-0.255-0.252-0.59-0.419-0.839-0.757
				c0.081-0.084,0.248-0.336,0.503-0.672c0.255-0.254,0.504-0.59,0.759-0.928c0.248-0.251,0.503-0.503,0.671-0.758
				c0.255-0.165,0.422-0.416,0.677-0.671c0.336,0.254,0.671,0.505,0.92,0.758c0.255,0.251,0.422,0.419,0.59,0.671
				c0.254,0.17,0.422,0.338,0.59,0.506c0.168,0.168,0.423,0.422,0.59,0.591c0.087-0.088,0.168-0.255,0.336-0.336
				c0.086-0.17,0.167-0.255,0.335-0.339c-0.335-0.252-0.671-0.506-1.006-0.758c-0.341-0.335-0.677-0.587-1.012-0.838
				c-0.335-0.254-0.671-0.59-1.007-0.845c-0.254-0.251-0.59-0.587-0.925-0.842c-0.336,0.507-0.757,1.013-1.18,1.599
				C129.473,205.423,129.056,205.93,128.634,206.519z"/>
			<path fill-rule="evenodd" clip-rule="evenodd" fill="#FFFFFF" d="M138.647,213.586l-1.267,2.357
				c-0.336,0.587-0.671,1.178-1.007,1.765c-0.336,0.589-0.671,1.179-1.007,1.769c0.163,0.083,0.416,0.168,0.584,0.252
				c0.255,0.084,0.423,0.251,0.677,0.335c0.249-0.587,0.503-1.177,0.838-1.767c0.255-0.589,0.591-1.177,0.926-1.768l1.262-2.438
				c0.335-0.59,0.676-1.177,0.926-1.768c0.335-0.589,0.677-1.177,1.099-1.767c-0.173,0-0.255-0.084-0.341-0.084
				c-0.168,0-0.255-0.084-0.336-0.167c-0.087,0-0.168-0.084-0.336-0.168c-0.087-0.083-0.173-0.083-0.254-0.168
				c-0.335,0.587-0.585,1.178-0.925,1.765C139.232,212.324,138.897,212.998,138.647,213.586z"/>
			<path fill-rule="evenodd" clip-rule="evenodd" fill="#FFFFFF" d="M147.984,225.112l0.167,0.086
				c0.087-0.171,0.087-0.337,0.174-0.507c0.08-0.251,0.167-0.504,0.335-0.842c0.081-0.335,0.168-0.674,0.336-1.009
				c0.167-0.419,0.249-0.758,0.416-1.177c0.087-0.336,0.255-0.674,0.336-1.01c0.173-0.334,0.254-0.674,0.341-0.841
				c0.082-0.336,0.255-0.674,0.417-1.18c0.173-0.419,0.423-0.924,0.59-1.429c0.168-0.419,0.422-0.925,0.59-1.344
				c0.168-0.423,0.336-0.758,0.422-0.926c-0.254,0-0.341-0.084-0.509-0.084c-0.081-0.086-0.249-0.17-0.416-0.254
				c-0.254,0.928-0.59,1.851-0.925,2.777c-0.336,1.009-0.671,2.022-1.012,3.031l-0.752,2.018c-0.254-0.59-0.509-1.348-0.845-2.187
				c-0.336-0.841-0.671-1.683-1.012-2.696c-0.336-0.924-0.671-1.848-1.006-2.86c-0.422-0.922-0.671-1.851-1.007-2.69l-0.254-0.084
				c-0.087,0.335-0.255,0.838-0.51,1.512c-0.249,0.675-0.503,1.516-0.839,2.442c-0.168,0.335-0.249,0.671-0.422,1.094
				c-0.168,0.419-0.335,0.841-0.503,1.261c-0.167,0.419-0.336,0.842-0.503,1.264c-0.168,0.419-0.336,0.842-0.509,1.177
				c-0.168,0.419-0.335,0.675-0.416,0.926c-0.087,0.252-0.173,0.42-0.254,0.59c0.168,0,0.336,0.084,0.503,0.084
				c0.168,0.084,0.342,0.168,0.423,0.252c0.086-0.084,0.086-0.252,0.167-0.505c0.087-0.168,0.173-0.505,0.255-0.759
				c0.081-0.336,0.255-0.588,0.336-1.007c0.087-0.338,0.254-0.674,0.335-1.012c0.087-0.336,0.255-0.672,0.341-0.926
				c0.081-0.336,0.162-0.589,0.249-0.758c0.336-0.838,0.503-1.429,0.758-1.931c0.168-0.422,0.254-0.759,0.416-1.096
				c0.676,1.766,1.267,3.617,1.938,5.385C146.804,221.664,147.393,223.431,147.984,225.112z"/>
			<path fill-rule="evenodd" clip-rule="evenodd" fill="#FFFFFF" d="M160.519,222.338c0.173,0.084,0.335,0.168,0.503,0.168
				c0.422,0.168,0.677,0.335,0.931,0.503c0.249,0.167,0.416,0.422,0.504,0.757c0.167,0.339,0.167,0.674,0.086,1.095
				c-0.086,0.421-0.173,0.84-0.341,1.094c-0.168,0.336-0.422,0.587-0.671,0.756c-0.168,0.167-0.509,0.335-0.758,0.421
				c-0.081,0-0.167,0-0.254,0v0.588c0.173,0,0.335,0,0.503,0c0.422,0,0.845-0.168,1.266-0.336c0.336-0.167,0.671-0.422,1.007-0.842
				c0.255-0.335,0.422-0.842,0.509-1.345c0.168-0.926,0-1.6-0.421-2.106c-0.423-0.419-1.013-0.754-1.852-0.922v-0.087
				c0.757,0,1.348-0.251,1.852-0.588c0.503-0.422,0.838-0.924,0.925-1.683c0.081-0.506,0.081-0.841,0-1.18
				c-0.168-0.335-0.335-0.587-0.59-0.754c-0.254-0.252-0.503-0.42-0.839-0.507c-0.336-0.168-0.763-0.251-1.18-0.335
				c-0.255,0-0.503,0-0.757,0c-0.087,0-0.249-0.084-0.422-0.084v0.586c0.173,0,0.335,0,0.59,0c0.254,0.087,0.504,0.169,0.758,0.255
				c0.249,0.084,0.503,0.168,0.676,0.335c0.249,0.168,0.336,0.423,0.417,0.675c0.168,0.335,0.168,0.673,0.087,1.093
				c-0.087,0.423-0.168,0.757-0.422,1.009c-0.167,0.255-0.422,0.423-0.671,0.59c-0.341,0.169-0.59,0.169-0.931,0.252
				c-0.168,0-0.33,0-0.503,0V222.338z M158.922,223.682l0.254-1.512l0.585,0.084c0.341,0,0.59,0.084,0.758,0.084v-0.59
				c-0.168,0-0.336-0.083-0.504-0.083l-0.758-0.084l0.168-1.177c0.087-0.507,0.168-1.009,0.254-1.432
				c0.081-0.507,0.248-1.01,0.335-1.513c0.087,0,0.25,0,0.422,0c0.082,0,0.082,0,0.082,0.081v-0.586c-0.082,0-0.168,0-0.336,0
				c-0.168-0.085-0.422-0.085-0.671-0.169c-0.255-0.083-0.509-0.083-0.758-0.169c-0.087,0.676-0.168,1.347-0.254,2.018
				c-0.087,0.591-0.168,1.264-0.249,2.021l-0.422,2.607c-0.168,0.674-0.255,1.347-0.423,2.022c-0.081,0.674-0.254,1.261-0.335,1.935
				c0.254,0,0.422,0.083,0.671,0.083c0.254,0.084,0.423,0.084,0.671,0.084c0.254,0.083,0.428,0.083,0.677,0.168
				c0.254,0,0.503,0.084,0.671,0.084c0.254,0.084,0.504,0.084,0.758,0.084v-0.588c-0.168,0.085-0.417,0.085-0.672,0
				c-0.254,0-0.503-0.086-0.757-0.086c-0.168-0.084-0.423-0.168-0.59-0.168c0.087-0.586,0.167-1.093,0.167-1.596
				C158.755,224.777,158.841,224.272,158.922,223.682z"/>
			<path fill-rule="evenodd" clip-rule="evenodd" fill="#FFFFFF" d="M172.048,228.981c0.671,0,1.348-0.084,1.932-0.251
				c0.677-0.252,1.261-0.587,1.77-1.01c0.422-0.503,0.839-1.093,1.094-1.764c0.335-0.674,0.503-1.432,0.503-2.358
				c0-0.842-0.081-1.683-0.335-2.357c-0.168-0.671-0.59-1.345-1.007-1.848c-0.422-0.422-1.012-0.842-1.602-1.097
				c-0.671-0.252-1.429-0.419-2.187-0.503c-0.087,0-0.168,0-0.168,0v0.587c0,0,0.081,0,0.168,0c0.503,0.084,1.012,0.171,1.515,0.339
				c0.503,0.251,0.925,0.587,1.262,1.009c0.335,0.419,0.59,0.925,0.757,1.6c0.168,0.587,0.255,1.345,0.168,2.27
				c0,0.842-0.087,1.6-0.335,2.187c-0.255,0.674-0.504,1.177-0.926,1.599c-0.335,0.336-0.758,0.674-1.261,0.839
				c-0.422,0.17-0.844,0.254-1.348,0.254V228.981z M166.663,223.26c0,0.845,0.086,1.683,0.335,2.357
				c0.254,0.758,0.589,1.345,1.012,1.85c0.504,0.423,1.006,0.842,1.683,1.094c0.671,0.251,1.342,0.419,2.1,0.419
				c0.087,0,0.168,0,0.255,0v-0.504c-0.086,0-0.167,0-0.167,0c-0.59,0-1.093-0.168-1.602-0.335c-0.416-0.252-0.839-0.59-1.174-1.01
				c-0.335-0.421-0.59-0.924-0.758-1.599c-0.167-0.591-0.255-1.346-0.255-2.273c0-0.839,0.169-1.596,0.336-2.187
				c0.254-0.67,0.59-1.177,0.931-1.513c0.335-0.422,0.752-0.757,1.261-0.928c0.416-0.168,0.926-0.252,1.429-0.252v-0.587
				c-0.757,0-1.347,0.084-2.019,0.335c-0.671,0.252-1.18,0.591-1.683,1.01c-0.503,0.507-0.925,1.096-1.18,1.767
				C166.917,221.58,166.749,222.338,166.663,223.26z"/>
			<path fill-rule="evenodd" clip-rule="evenodd" fill="#FFFFFF" d="M188.285,228.394l0.255-0.084c0-0.086-0.087-0.251-0.087-0.503
				c0-0.255,0-0.506-0.081-0.845c0-0.335-0.088-0.754-0.088-1.091c-0.086-0.422-0.086-0.76-0.167-1.18c0-0.42,0-0.757-0.087-1.093
				c0-0.422,0-0.673-0.081-0.925c0-0.336,0-0.758-0.086-1.263c0-0.505,0-1.007-0.081-1.514c0-0.503,0-1.009,0-1.432
				c0-0.503,0-0.838,0-1.093c-0.255,0.087-0.342,0.167-0.503,0.167c-0.087,0-0.256,0-0.51-0.081
				c0.168,0.922,0.254,1.935,0.335,2.945c0.174,1.007,0.255,2.103,0.335,3.195l0.174,2.103c-0.422-0.419-1.012-0.925-1.683-1.596
				c-0.59-0.59-1.261-1.265-2.019-2.023c-0.677-0.673-1.435-1.429-2.105-2.103c-0.758-0.757-1.429-1.428-2.1-2.102h-0.173
				c0,0.419,0.087,0.925,0.173,1.682c0,0.674,0.081,1.513,0.168,2.523c0.081,0.339,0.081,0.758,0.167,1.177c0,0.422,0,0.928,0,1.347
				c0.081,0.419,0.081,0.926,0.081,1.348c0,0.503,0.087,0.923,0.087,1.345c0,0.335,0,0.674,0,1.009c0,0.252,0,0.42,0,0.587
				c0.168-0.084,0.336-0.084,0.503-0.084c0.168-0.084,0.336-0.084,0.504-0.084c0,0,0-0.168-0.081-0.42
				c0-0.251-0.087-0.503-0.087-0.842c0-0.336-0.082-0.673-0.082-1.009c-0.086-0.335-0.086-0.674-0.173-1.093
				c0-0.339-0.082-0.675-0.082-1.01c0-0.338-0.086-0.59-0.086-0.758c-0.081-0.842-0.081-1.515-0.168-2.018
				c0-0.507,0-0.926-0.081-1.177c1.348,1.344,2.771,2.689,4.119,4.038C185.844,225.786,187.105,227.047,188.285,228.394z"/>
			<path fill-rule="evenodd" clip-rule="evenodd" fill="#FFFFFF" d="M196.28,226.879c0.416-0.084,0.839-0.084,1.261-0.167
				c0.757-0.252,1.429-0.503,2.018-0.839c0.59-0.422,1.012-0.845,1.348-1.432c0.417-0.59,0.59-1.264,0.671-1.935
				c0.167-0.758,0.081-1.6-0.081-2.441c-0.254-0.841-0.509-1.6-0.926-2.186c-0.422-0.675-0.932-1.178-1.515-1.516
				c-0.509-0.336-1.18-0.588-1.852-0.671c-0.341-0.084-0.59-0.084-0.925-0.084v0.671c0.167,0,0.334,0,0.416,0
				c0.509,0.084,1.012,0.336,1.435,0.675c0.417,0.251,0.839,0.755,1.174,1.261c0.335,0.59,0.59,1.347,0.845,2.19
				c0.168,0.838,0.249,1.597,0.168,2.27c0,0.587-0.168,1.177-0.423,1.683c-0.255,0.506-0.59,0.842-1.006,1.178
				c-0.422,0.252-0.931,0.506-1.521,0.59c-0.33,0.084-0.753,0.168-1.088,0.168V226.879z M191.062,222.422
				c0.255,0.923,0.503,1.684,0.925,2.27c0.422,0.59,0.925,1.094,1.516,1.433c0.503,0.419,1.174,0.587,1.851,0.671
				c0.336,0.084,0.59,0.084,0.926,0.084v-0.586c-0.168,0-0.336-0.084-0.423-0.084c-0.503-0.084-1.012-0.252-1.429-0.591
				c-0.422-0.336-0.844-0.756-1.18-1.346c-0.336-0.59-0.59-1.263-0.839-2.102c-0.168-0.842-0.255-1.599-0.168-2.274
				c0.081-0.673,0.168-1.264,0.416-1.683c0.254-0.506,0.59-0.923,1.013-1.177c0.422-0.336,0.925-0.591,1.515-0.674
				c0.336-0.084,0.757-0.168,1.094-0.084v-0.671c-0.423,0-0.845,0.084-1.267,0.167c-0.752,0.168-1.429,0.504-2.019,0.84
				c-0.585,0.422-1.007,0.924-1.429,1.514c-0.335,0.503-0.503,1.178-0.671,1.935C190.807,220.822,190.894,221.58,191.062,222.422z"
				/>
			<path fill-rule="evenodd" clip-rule="evenodd" fill="#FFFFFF" d="M207.045,211.822l-0.249,0.168
				c0.336,0.755,0.671,1.597,1.094,2.438c0.335,0.841,0.671,1.683,1.006,2.609c0.336,0.842,0.758,1.767,1.093,2.693
				c0.336,0.842,0.59,1.681,0.926,2.525c0.174-0.084,0.254-0.171,0.422-0.339c0.173-0.083,0.336-0.083,0.422-0.168
				c-0.168-0.337-0.422-0.842-0.671-1.428c-0.255-0.59-0.59-1.264-0.845-1.939c-0.336-0.673-0.59-1.344-0.926-2.018
				c-0.254-0.755-0.59-1.345-0.838-2.019l0,0c1.261,0.925,2.435,1.767,3.615,2.693c1.18,0.842,2.354,1.683,3.534,2.524h0.087
				c-0.173-1.515-0.341-3.031-0.422-4.459c-0.087-1.429-0.168-2.945-0.168-4.376l0,0c0.752,1.097,1.511,2.19,2.267,3.282
				c0.677,1.094,1.435,2.271,2.187,3.364c0.087-0.081,0.254-0.081,0.342-0.168c0.081-0.083,0.167-0.083,0.249-0.167
				c0.087,0,0.254-0.084,0.335-0.169c0.087,0,0.174-0.084,0.254-0.084c-0.503-0.757-1.006-1.432-1.515-2.189
				c-0.503-0.671-1.007-1.429-1.515-2.187c-0.584-0.755-1.093-1.515-1.597-2.27c-0.59-0.758-1.093-1.599-1.683-2.441l-0.168,0.084
				c0,0.589,0.088,1.177,0.088,1.77c0,0.587,0.081,1.262,0.081,1.849c0.087,0.673,0.087,1.261,0.087,1.934
				c0.081,0.59,0.081,1.178,0.081,1.683c0.087,0.591,0.087,1.01,0.087,1.429c0.087,0.422,0.087,0.758,0.087,1.013
				c-1.348-1.013-2.696-1.851-3.957-2.78C209.573,213.756,208.312,212.828,207.045,211.822z"/>
			<path fill-rule="evenodd" clip-rule="evenodd" fill="#FFFFFF" d="M222.947,208.623c0.087-0.084,0.087-0.084,0.174-0.168
				c0.248-0.168,0.416-0.335,0.584-0.506c0.168-0.168,0.423-0.335,0.59-0.503c0.168-0.167,0.422-0.336,0.59-0.59l-1.938-0.925
				v-1.262c0.336,0.168,0.59,0.252,0.926,0.423c0.671,0.332,1.348,0.754,2.018,1.09c0.677,0.338,1.348,0.674,1.938,0.928
				c0.584,0.336,1.093,0.588,1.597,0.756c0.422,0.255,0.845,0.422,1.093,0.505c-0.168,0.085-0.249,0.169-0.336,0.253
				c-0.087,0.083-0.167,0.167-0.249,0.254c-0.086,0.081-0.255,0.165-0.342,0.249c-0.08,0.086-0.167,0.17-0.248,0.254
				c-0.168-0.084-0.422-0.254-0.758-0.422c-0.341-0.168-0.676-0.419-1.012-0.588c-0.335-0.167-0.671-0.334-1.006-0.505
				c-0.423-0.251-0.759-0.419-1.094-0.586c-0.168,0.167-0.422,0.419-0.677,0.586c-0.254,0.255-0.503,0.422-0.67,0.674
				c-0.255,0.167-0.423,0.338-0.672,0.588c-0.173,0.17-0.335,0.254-0.509,0.424V208.623L222.947,208.623z M222.947,211.989v-1.935
				c0.254,0.671,0.59,1.345,0.844,1.935c0.249,0.671,0.591,1.261,0.753,1.684c-0.081,0.167-0.249,0.251-0.416,0.334
				c-0.087,0.169-0.255,0.251-0.336,0.42C223.537,213.586,223.202,212.828,222.947,211.989z M222.53,208.958
				c0.168-0.081,0.25-0.252,0.417-0.335v0.928c0,0.081-0.081,0.081-0.081,0.165c0,0.084,0.081,0.17,0.081,0.339v1.935
				c-0.336-1.009-0.758-2.103-1.093-3.112c-0.671-1.854-1.348-3.702-2.1-5.556l0.249-0.249c0.503,0.336,1.18,0.672,1.851,1.007
				c0.335,0.168,0.757,0.339,1.093,0.59v1.262l-1.932-0.923L222.53,208.958z"/>
			<path fill-rule="evenodd" clip-rule="evenodd" fill="#FFFFFF" d="M227.661,201.305l2.187,1.68
				c0.504,0.422,1.006,0.842,1.516,1.261c0.584,0.422,1.093,0.928,1.515,1.347c0.335-0.419,0.584-0.758,0.839-1.093
				c0.254-0.339,0.503-0.674,0.758-1.013c0.335-0.332,0.584-0.754,0.839-1.093c0.255-0.335,0.509-0.671,0.844-1.007
				c-0.168,0-0.335-0.084-0.422-0.171c-0.086-0.084-0.167-0.168-0.336-0.336c-0.341,0.59-0.677,1.178-1.012,1.683
				c-0.417,0.506-0.752,1.01-1.175,1.513c-0.671-0.419-1.348-1.007-2.106-1.597c-0.757-0.589-1.683-1.264-2.696-2.105
				c-0.503-0.42-1.087-0.839-1.597-1.264c-0.503-0.417-1.007-0.839-1.51-1.259c-0.086,0.084-0.173,0.168-0.173,0.252
				c-0.081,0.168-0.162,0.252-0.248,0.336c0,0.084-0.087,0.168-0.168,0.254c-0.087,0.085-0.173,0.168-0.254,0.252
				c0.508,0.423,1.093,0.758,1.596,1.178C226.65,200.544,227.152,200.882,227.661,201.305z"/>
			<path fill-rule="evenodd" clip-rule="evenodd" fill="#FFFFFF" d="M236.998,188.765c0.255,0.168,0.59,0.335,0.926,0.504
				c0.336,0.171,0.677,0.422,1.012,0.674c0.254,0.171,0.59,0.422,0.838,0.757c0.255,0.255,0.422,0.59,0.591,0.843
				c0.087,0.338,0.168,0.754,0.087,1.094c0,0.423-0.087,0.842-0.342,1.347c-0.249,0.42-0.503,0.755-0.839,1.01
				c-0.255,0.251-0.59,0.419-0.926,0.587c-0.335,0.084-0.671,0.084-1.007,0.084c-0.342-0.084-0.677-0.167-1.012-0.251
				c-0.422-0.169-0.757-0.253-1.093-0.419c-0.335-0.255-0.677-0.423-0.925-0.59c-0.51-0.252-1.013-0.506-1.516-0.758
				c-0.503-0.252-0.925-0.503-1.348-0.755c-0.416-0.254-0.752-0.422-1.093-0.674c-0.255-0.168-0.504-0.336-0.759-0.423
				c0,0.087,0,0.168-0.08,0.255c0,0.081-0.087,0.168-0.087,0.336c-0.081,0.084-0.168,0.168-0.249,0.252
				c-0.087,0.168-0.087,0.254-0.168,0.336c0.417,0.171,0.925,0.422,1.51,0.758c0.59,0.254,1.348,0.674,2.105,1.093
				c0.336,0.171,0.671,0.338,1.013,0.59c0.335,0.167,0.671,0.338,1.087,0.59c1.348,0.758,2.528,1.01,3.453,0.758
				c0.926-0.255,1.765-1.009,2.435-2.274c0.254-0.59,0.422-1.094,0.509-1.597c0.087-0.594,0-1.097-0.168-1.6
				c-0.167-0.423-0.503-0.926-0.926-1.348c-0.336-0.419-0.838-0.755-1.515-1.09c-0.503-0.338-1.007-0.59-1.516-0.929
				c-0.503-0.251-1.093-0.587-1.509-0.839c-0.509-0.338-1.012-0.59-1.434-0.842c-0.417-0.254-0.84-0.505-1.094-0.674
				c-0.081,0.168-0.081,0.252-0.168,0.419c-0.087,0.084-0.087,0.168-0.168,0.254c-0.081,0-0.081,0.081-0.167,0.168
				c0.248,0.168,0.757,0.419,1.515,0.757C234.644,187.504,235.651,188.091,236.998,188.765z"/>
			<path fill-rule="evenodd" clip-rule="evenodd" fill="#FFFFFF" d="M234.221,181.78l-0.08,0.254
				c0.838,0.339,1.596,0.674,2.522,1.01c0.844,0.335,1.683,0.758,2.528,1.177c0.92,0.338,1.764,0.757,2.603,1.18
				c0.839,0.42,1.683,0.755,2.441,1.177c0.081-0.168,0.081-0.336,0.168-0.506c0-0.168,0.087-0.335,0.168-0.503
				c-0.416-0.084-0.926-0.252-1.509-0.506c-0.596-0.252-1.267-0.504-1.938-0.758c-0.671-0.336-1.429-0.589-2.106-0.926
				c-0.671-0.251-1.342-0.503-1.932-0.754v-0.083c1.516-0.168,2.945-0.336,4.374-0.59c1.515-0.172,2.944-0.421,4.379-0.591v-0.083
				c-1.18-0.926-2.36-1.935-3.373-2.861c-1.093-1.009-2.099-2.018-3.193-3.028l0,0c1.342,0.252,2.689,0.506,3.951,0.758
				c1.266,0.251,2.615,0.59,3.956,0.926c0-0.167,0-0.252,0.087-0.336c0-0.168,0-0.255,0.081-0.339c0-0.083,0.087-0.251,0.087-0.335
				c0-0.084,0.081-0.168,0.081-0.339c-0.839-0.084-1.678-0.251-2.522-0.419c-0.926-0.167-1.77-0.334-2.696-0.503
				c-0.839-0.168-1.764-0.337-2.69-0.59c-0.926-0.168-1.851-0.338-2.858-0.59l-0.087,0.253c0.422,0.338,0.844,0.76,1.261,1.176
				c0.422,0.422,0.926,0.844,1.348,1.265c0.503,0.422,0.925,0.841,1.429,1.26c0.422,0.423,0.845,0.842,1.26,1.178
				c0.423,0.422,0.759,0.758,1.013,1.013c0.336,0.249,0.59,0.503,0.758,0.674c-1.683,0.248-3.199,0.503-4.795,0.754
				C237.42,181.361,235.824,181.612,234.221,181.78z"/>
			<path fill-rule="evenodd" clip-rule="evenodd" fill="#FFFFFF" d="M261.316,166.3v-0.755h0.081c0.336,0,0.59-0.086,0.845-0.171
				c0.168-0.083,0.335-0.167,0.416-0.336c0.087-0.167,0.174-0.335,0.174-0.506c0-0.249-0.087-0.503-0.341-0.674
				c-0.168-0.168-0.504-0.249-0.926-0.249h-0.249v-0.674h0.249c0.509,0,0.926,0.085,1.18,0.168c0.249,0.084,0.503,0.252,0.671,0.506
				c0.167,0.336,0.254,0.588,0.254,0.923c0,0.422-0.167,0.759-0.422,1.012c-0.254,0.336-0.671,0.504-1.261,0.587
				c0.168,0.087,0.335,0.168,0.504,0.255c0.167,0.248,0.422,0.503,0.59,0.755l1.012,1.599h-0.926l-0.844-1.18
				c-0.167-0.336-0.335-0.672-0.503-0.839c-0.168-0.168-0.254-0.336-0.423-0.336C261.397,166.3,261.316,166.3,261.316,166.3z
				 M252.142,168.742v-5.805h1.18l1.347,4.122c0.162,0.422,0.249,0.674,0.336,0.842c0-0.168,0.168-0.506,0.249-0.925l1.435-4.039
				h1.006v5.805h-0.758v-4.882l-1.683,4.882h-0.671l-1.683-4.963v4.963H252.142L252.142,168.742z M261.316,162.936v0.674h-1.596
				v1.935h1.596v0.755c-0.086-0.081-0.173-0.081-0.254-0.081c-0.08,0-0.254-0.087-0.422-0.087h-0.92v2.609h-0.764v-5.805H261.316z"
				/>
		</g>
	</g>
	<g>
		<path fill="#FFFFFF" d="M268.279,215.406c2.236-0.498,4.777-0.838,7.012-0.838c2.389,0,4.77,0.34,7.008,0.838
			c2.381-10.937,6.113-21.209,9.393-31.644l0.742-2.321c6.113-0.164,12.08-0.328,18.193-0.328c5.517,0,10.89,0.328,16.407,0.498
			c4.024,11.096,7.154,22.36,10.283,33.795c4.181-0.498,8.348-0.838,12.528-0.838c4.177,0,8.497,0.498,12.671,0.838v-1.495
			l-0.746-1.822c-13.715-35.783-26.69-71.904-39.062-108.188l-1.045-2.819c-1.945,0.327-3.731,0.831-5.662,0.831
			c-1.946,0-3.732-0.505-5.671-0.831c-9.394,28.665-19.98,56.829-31.016,84.661l-11.034,28.339V215.406L268.279,215.406z
			 M296.76,170.004c4.175-12.593,8.798-24.849,13.569-37.111c4.624,12.755,9.097,25.685,13.273,38.604H296.31L296.76,170.004
			L296.76,170.004z"/>
		<path fill="#FFFFFF" d="M365.793,139.352c0.146,7.127,0.748,14.085,0.748,21.208c0,2.157,0,4.314,0,6.629
			c0,6.289-0.153,12.599-0.153,18.888c0,6.958-0.298,13.747-0.298,20.712c0,2.808-0.445,5.798-0.445,8.616
			c3.574-0.17,7.157-0.838,10.731-0.838c3.58,0,7.158,0.668,10.744,0.838c-0.158-12.432-0.753-24.851-0.753-37.283
			c0-10.435-0.743-29.819,12.979-29.819c12.823,0,12.226,16.899,12.226,26.841c0,4.139-0.152,8.29-0.152,12.422
			c-0.153,6.461-0.298,12.758-0.746,19.224c-0.147,2.808-0.451,5.798-0.597,8.616c3.428-0.17,6.71-0.838,10.137-0.838
			c4.028,0,7.905,0.498,11.928,0.838c0-9.115-0.152-18.387-0.152-27.512c0-6.781,0.152-13.411,0.152-20.207
			c0-8.453,0.448-17.561-4.917-24.191c-5.221-6.295-10.89-9.279-18.644-9.279c-9.236,0-16.997,6.132-22.666,13.922l0.45-12.098
			c-3.282,0.334-6.411,0.662-9.693,0.662c-3.727,0-7.304-0.328-11.03-0.662L365.793,139.352L365.793,139.352z"/>
		<path fill="#FFFFFF" d="M461.616,179.945c2.535-2.151,5.815-2.977,8.792-4.303c1.945-0.825,4.03-1.822,5.969-2.819
			c-0.298,5.299-0.298,10.611-0.298,15.909c0,8.287-1.939,17.389-11.035,17.389c-6.412,0-8.198-6.465-8.198-12.593
			C456.845,188.234,457.739,183.434,461.616,179.945L461.616,179.945z M444.025,155.589c0.442-0.657,1.19-1.325,1.641-1.982
			c4.618-4.478,10.433-7.462,16.547-7.462c6.86,0,13.867,5.802,13.867,13.757c0,2.48-0.152,4.631-1.939,6.296
			c-3.281,2.321-7.157,3.313-10.883,4.302c-6.556,1.825-12.226,2.977-18.345,6.966c-5.664,3.646-8.945,10.938-8.945,18.213
			c0,14.257,9.103,21.707,21.33,21.707c7.748,0,15.203-4.473,19.081-11.922c2.388,7.122,7.753,11.764,14.766,11.764
			c2.086,0,4.169-0.498,6.26-0.997c2.381-0.996,4.923-1.823,7.158-3.318v-1.652c0-4.315-0.152-1.167-5.075-2.82
			c-1.936-0.997-3.42-4.643-3.577-6.965c-0.147-3.146-0.147-6.296-0.147-9.439c0-8.119,0.45-16.066,0.45-24.187
			c0-3.646-0.146-7.45-0.146-11.096c-0.304-16.407-14.919-22.204-27.443-22.204c-9.394,0-20.576,3.975-27.588,11.096l1.944,9.941
			H444.025L444.025,155.589z M485.77,111.69c1.641-1.167,3.13-2.322,4.77-3.488c1.793-2.48,2.837-3.149,2.837-6.46
			c0-1.987-0.6-3.98-1.791-5.299c-1.345-1.161-2.983-1.987-4.77-1.987c-1.64,0-3.732,0-5.068,1.324
			c-1.945,0.997-3.434,2.984-4.778,4.643l-19.08,24.685h8.191L485.77,111.69L485.77,111.69z"/>
		<path fill="#FFFFFF" d="M529.012,90.312c-3.729,0.833-7.608,0.833-11.337,0.833c-3.721,0-7.452-0.165-11.036-0.833
			c0.752,18.06,1.197,36.122,1.197,54.011c0,6.465-0.152,12.924-0.152,19.226l-0.596,41.247c0,3.476-0.296,6.963-0.448,10.609
			c3.584-0.17,7.158-0.838,10.743-0.838c3.572,0,7.158,0.668,10.732,0.838c-0.146-12.432-0.742-24.851-0.742-37.283
			c0-10.6-0.753-29.819,12.974-29.819c5.213,0,9.837,4.472,11.174,9.941c0.748,3.811,1.046,12.593,1.046,16.731
			c0,4.813,0,9.772-0.298,14.578l-0.445,15.244c-0.152,3.476-0.448,7.122-0.746,10.609c3.578-0.17,7.304-0.838,10.884-0.838
			c3.73,0,7.462,0.498,11.18,0.838c0-2.989-0.146-5.809-0.146-8.786c0-6.963,0-13.755,0-20.707v-22.861
			c0-8.119-0.595-15.081-6.114-21.043c-4.921-5.305-10.586-7.791-17.446-7.791c-8.053,0-16.85,6.63-22.065,13.089l0.292-17.895
			L529.012,90.312L529.012,90.312z"/>
		<path fill="#FFFFFF" d="M626.77,215.406c3.13-0.34,6.411-0.838,9.547-0.838c3.724,0,7.456,0.668,11.182,0.838l-0.146-3.317
			c-0.45-7.463-0.748-14.915-0.748-22.203c0-2.818,0-5.627,0-8.446c0-8.78,0.151-17.563,0.298-26.508
			c0-6.294,0.145-12.596,0.596-18.891c-3.58,0.334-7.16,0.662-10.732,0.662c-3.585,0-7.165-0.328-10.744-0.662
			c0.157,12.427,0.747,24.853,0.747,37.282c0,10.439,0.603,29.821-12.975,29.821c-5.22,0-8.647-3.488-10.586-8.619
			c-1.495-3.478-1.641-9.937-1.641-13.753c0-14.907,0.146-29.819,1.497-44.731c-3.434,0.334-6.71,0.662-10.143,0.662
			c-4.028,0-7.906-0.328-11.928-0.662c0,2.984,0.152,5.803,0.152,8.78c0,12.099-0.152,24.027-0.152,36.122
			c0,8.281-0.749,18.555,3.876,25.677c4.471,7.122,12.378,10.269,19.98,10.269c10.442,0,15.654-5.299,22.364-13.587L626.77,215.406
			L626.77,215.406z"/>
		<path fill="#FFFFFF" d="M677.261,179.945c2.54-2.151,5.821-2.977,8.8-4.303c1.939-0.825,4.028-1.822,5.966-2.819
			c-0.304,5.299-0.304,10.611-0.304,15.909c0,8.287-1.932,17.389-11.036,17.389c-6.404,0-8.197-6.465-8.197-12.593
			C672.491,188.234,673.384,183.434,677.261,179.945L677.261,179.945z M659.669,155.589c0.444-0.657,1.19-1.325,1.641-1.982
			c4.624-4.478,10.433-7.462,16.546-7.462c6.868,0,13.868,5.802,13.868,13.757c0,2.48-0.146,4.631-1.932,6.296
			c-3.281,2.321-7.159,3.313-10.89,4.302c-6.563,1.825-12.226,2.977-18.339,6.966c-5.665,3.646-8.947,10.938-8.947,18.213
			c0,14.257,9.1,21.707,21.326,21.707c7.746,0,15.21-4.473,19.086-11.922c2.384,7.122,7.755,11.764,14.754,11.764
			c2.091,0,4.181-0.498,6.271-0.997c2.384-0.996,4.923-1.823,7.154-3.318v-1.652c0-4.315-0.146-1.167-5.068-2.82
			c-1.939-0.997-3.434-4.643-3.58-6.965c-0.152-3.146-0.152-6.296-0.152-9.439c0-8.119,0.451-16.066,0.451-24.187
			c0-3.646-0.153-7.45-0.153-11.096c-0.298-16.407-14.906-22.204-27.431-22.204c-9.395,0-20.575,3.975-27.588,11.096l1.939,9.941
			H659.669L659.669,155.589z"/>
		<path fill="#FFFFFF" d="M785.964,141.844c-7.012-5.141-17.147-7.627-25.656-7.627c-23.404,0-39.21,16.735-39.21,42.914
			c0,11.6,3.428,21.367,10.732,29.658c7.31,8.118,18.345,10.44,28.332,10.44c5.372,0,15.958-2.163,20.138-6.295l3.574-9.783
			l-2.529-2.323c-3.584,4.645-9.99,7.792-15.509,7.792c-7.011,0-13.124-2.322-17.302-9.117c-4.479-7.118-4.917-14.902-4.917-23.355
			c0-12.258,3.872-31.812,17.893-31.812c8.801,0,14.159,7.456,15.204,16.571h3.586L785.964,141.844L785.964,141.844z"/>
	</g>
</g>
</svg>
